<?xml version="1.0" encoding="UTF-8" standalone="no"?>
<!-- Created with Inkscape (http://www.inkscape.org/) -->

<svg
   xmlns:dc="http://purl.org/dc/elements/1.1/"
   xmlns:cc="http://creativecommons.org/ns#"
   xmlns:rdf="http://www.w3.org/1999/02/22-rdf-syntax-ns#"
   xmlns:svg="http://www.w3.org/2000/svg"
   xmlns="http://www.w3.org/2000/svg"
   xmlns:xlink="http://www.w3.org/1999/xlink"
   xmlns:sodipodi="http://sodipodi.sourceforge.net/DTD/sodipodi-0.dtd"
   xmlns:inkscape="http://www.inkscape.org/namespaces/inkscape"
   id="svg3312"
   version="1.1"
   inkscape:version="0.47 r22583"
   width="150"
   height="175"
   sodipodi:docname="photo_muras.svg">
  <metadata
     id="metadata3318">
    <rdf:RDF>
      <cc:Work
         rdf:about="">
        <dc:format>image/svg+xml</dc:format>
        <dc:type
           rdf:resource="http://purl.org/dc/dcmitype/StillImage" />
        <dc:title />
      </cc:Work>
    </rdf:RDF>
  </metadata>
  <defs
     id="defs3316">
    <inkscape:perspective
       sodipodi:type="inkscape:persp3d"
       inkscape:vp_x="0 : 0.5 : 1"
       inkscape:vp_y="0 : 1000 : 0"
       inkscape:vp_z="1 : 0.5 : 1"
       inkscape:persp3d-origin="0.5 : 0.33333333 : 1"
       id="perspective3320" />
    <clipPath
       clipPathUnits="userSpaceOnUse"
       id="clipPath2851">
      <rect
         style="fill:#000000;stroke:#000000;stroke-width:1"
         id="rect2853"
         width="146.82204"
         height="173.51697"
         x="-7.5233407"
         y="0.60455871"
         ry="45.621677" />
    </clipPath>
  </defs>
  <sodipodi:namedview
     pagecolor="#ffffff"
     bordercolor="#666666"
     borderopacity="1"
     objecttolerance="10"
     gridtolerance="10"
     guidetolerance="10"
     inkscape:pageopacity="0"
     inkscape:pageshadow="2"
     inkscape:window-width="1280"
     inkscape:window-height="723"
     id="namedview3314"
     showgrid="false"
     inkscape:zoom="1.907168"
     inkscape:cx="-29.98196"
     inkscape:cy="87.499998"
     inkscape:window-x="0"
     inkscape:window-y="25"
     inkscape:window-maximized="1"
     inkscape:current-layer="svg3312" />
  <image
     xlink:href="file:///home/federico/Documents/MyDoc/Federico/photo_muras.png"
     width="150"
     height="175"
     id="image3322"
     x="-321.08051"
     y="-1.4830508" />
  <g
     id="g2834"
     transform="translate(-25.95339,0.74152542)">
    <path
       id="path3546"
       d="m 199.72881,171.38358 c 0,-0.76551 1.96371,-3.57801 4.3638,-6.25 6.02507,-6.70763 9.6362,-12.24097 9.6362,-14.76556 0,-4.24397 4.85271,-9.56129 11.82441,-12.9565 l 6.67559,-3.25101 -0.27945,-6.94254 c -0.25735,-6.39354 -0.53723,-7.17977 -3.53935,-9.94254 -5.66138,-5.21002 -10.38108,-17.938553 -11.36208,-30.6423 -0.54815,-7.0985 -0.43777,-7.72384 1.55123,-8.788322 1.97025,-1.054446 2.02927,-1.362809 0.73857,-3.858747 -0.77154,-1.491996 -1.71837,-5.412251 -2.10407,-8.711679 -0.38569,-3.299427 -1.30282,-7.841015 -2.03805,-10.092416 -1.58913,-4.8662 -0.70028,-13.367685 1.87217,-17.906543 0.93516,-1.65 5.21083,-7.5 9.5015,-13 8.24514,-10.569038 13.3107,-14.4550995 18.87959,-14.4835495 2.43343,-0.01243 3.77704,-0.773755 5.5,-3.116444 3.84191,-5.2237805 8.4927,-6.92525044 19.22542,-7.03352674 7.88218,-0.079519 10.2213,0.2778918 14.09668,2.15392964 3.99565,1.9342617 5.61527,2.1592183 11.56471,1.6062764 8.33654,-0.7748 11.6496,0.3850513 17.56028,6.1475787 3.79063,3.6956215 8.33285,11.6968655 8.33285,14.6785395 0,0.659212 1.16246,2.289509 2.58324,3.622882 1.42078,1.333373 4.11421,5.473481 5.9854,9.20024 3.39674,6.765115 3.40144,6.794283 2.94392,18.281194 -0.38152,9.57854 -0.90357,12.5467 -3.1174,17.724074 -1.5599,3.648061 -2.76312,8.492409 -2.91066,11.718806 -0.31976,6.992288 -2.69942,15.010394 -6.50251,21.909777 -1.6401,2.97537 -2.98199,6.62719 -2.98199,8.11514 0,1.48795 -0.82938,3.77856 -1.84307,5.09023 -1.01369,1.31167 -2.6639,5.53486 -3.66715,9.38486 -1.67881,6.44253 -4.78067,13.56929 -7.68528,17.65756 -0.98043,1.37997 -0.63511,2.11409 2.0619,4.38348 3.10072,2.60908 8.22904,11.31835 10.72207,18.20896 l 1.17585,3.25 -59.38216,0 c -50.06668,0 -59.38216,-0.21834 -59.38216,-1.39185 z"
       style="fill:#6a6a6a" />
    <path
       id="path3544"
       d="m 282.2414,113.70377 c 0.24358,-0.73075 -0.21359,-0.95424 -1.1875,-0.58051 -0.87096,0.33422 -1.58356,1.04702 -1.58356,1.58401 0,1.31439 2.27278,0.49134 2.77106,-1.0035 z"
       style="fill:#6a6a6a" />
    <path
       id="path3564"
       d="m 202.47034,172.18659 c 0,-0.73169 2.91459,-4.66919 6.47686,-8.75 4.17189,-4.77915 6.49095,-8.30934 6.51645,-9.91964 0.0779,-4.91883 4.14661,-10.13144 10.35856,-13.27081 5.22692,-2.64156 6.13468,-2.81933 8.5,-1.66465 1.45647,0.71101 4.33114,1.32485 6.38815,1.3641 3.01658,0.0576 4.47415,0.84508 7.53531,4.07136 2.0874,2.2 4.52889,5.16366 5.42552,6.58592 0.89663,1.42225 4.84493,4.78242 8.774,7.46703 l 7.14377,4.88112 9.94069,0.39927 c 5.46738,0.2196 9.94069,0.70727 9.94069,1.0837 0,1.4772 -9.77973,5.32089 -16.45694,6.46802 -5.06874,0.87079 -8.06436,0.91633 -10.68638,0.16245 -4.36468,-1.25491 -17.41533,-12.69361 -19.41475,-17.01673 -0.77095,-1.66693 -1.8283,-3.70578 -2.34968,-4.53078 -0.52137,-0.825 -1.20224,-2.31602 -1.51304,-3.31338 -0.3108,-0.99736 -1.01826,-1.5333 -1.57215,-1.19099 -1.50284,0.92881 -1.18993,17.39372 0.41818,22.00437 2.20706,6.32789 1.72919,6.5 -18.04769,6.5 -13.79518,0 -17.37755,-0.27425 -17.37755,-1.33036 z"
       style="fill:#151515" />
    <path
       id="path3562"
       d="m 305.34278,171.85236 c -1.36639,-1.65726 -1.75404,-16.78714 -0.46319,-18.078 1.61849,-1.61849 6.66337,5.76598 10.92573,15.99259 l 1.56297,3.75 -5.32653,0 c -3.75245,0 -5.73211,-0.49192 -6.69898,-1.66459 z"
       style="fill:#151515" />
    <path
       id="path3556"
       d="m 261.16419,134.87747 c -1.42191,-1.42192 0.68795,-2.36052 5.30615,-2.36052 4.93863,0 7.30577,1.28495 4.41247,2.39522 -2.0859,0.80043 -8.90784,0.77607 -9.71862,-0.0347 z"
       style="fill:#151515" />
    <path
       id="path3554"
       d="m 268.94896,119.49332 c -1.37946,-1.52428 -1.54778,-2.30721 -0.68212,-3.17287 1.70209,-1.70209 6.2035,0.60181 6.2035,3.17506 0,2.66014 -3.11313,2.6589 -5.52138,-0.002 z"
       style="fill:#151515" />
    <path
       id="path3552"
       d="m 227.09686,108.00062 c -1.80512,-1.80512 -1.34069,-3.48367 0.96388,-3.48367 1.85972,0 3.00064,2.80896 1.6781,4.1315 -0.66276,0.66276 -1.5486,0.44555 -2.64198,-0.64783 z"
       style="fill:#151515" />
    <path
       id="path3550"
       d="m 222.86882,98.112983 c -0.34011,-0.886311 0.15162,-2.786643 1.09273,-4.222959 2.10926,-3.219135 1.39521,-7.834713 -1.58546,-10.248309 -1.9147,-1.550428 -1.96199,-1.833198 -0.50842,-3.039557 1.95449,-1.62208 2.00563,-3.969401 0.14014,-6.431605 -0.76941,-1.015518 -1.71768,-4.822831 -2.10726,-8.460695 -0.38958,-3.637864 -1.27909,-7.981986 -1.97668,-9.653604 -1.82224,-4.366552 -1.10893,-12.763305 1.45312,-17.105665 1.18642,-2.010831 5.5689,-7.897946 9.73884,-13.082478 7.88387,-9.802107 12.74199,-13.351162 18.27572,-13.351162 2.76653,0 7.07879,-3.146727 7.07879,-5.1655085 0,-1.715781 5.16685,-4.0157757 11.17399,-4.9740387 9.00348,-1.4362402 11.95761,-1.1473718 18.39218,1.7984712 5.0123,2.2947088 6.49866,2.5293094 12.49439,1.972065 3.74292,-0.3478674 7.86422,-0.2298866 9.15845,0.2621796 4.85693,1.8465995 11.48119,9.4064824 14.31221,16.3336664 1.55546,3.806051 3.77376,7.398202 5.10895,8.273053 1.29791,0.85042 2.35983,2.101925 2.35983,2.781122 0,0.679197 1.05664,3.256323 2.34808,5.726947 1.92616,3.684883 2.3651,6.109222 2.4428,13.492043 0.10663,10.131623 -0.87712,15.638803 -3.99709,22.376288 -1.17762,2.543041 -2.08818,6.277031 -2.02347,8.297754 0.16358,5.108156 -2.08789,6.850583 -4.77281,3.693716 -1.8094,-2.127442 -2.00157,-3.687193 -1.89339,-15.367758 0.18861,-20.36612 0.77325,-18.30363 -6.87947,-24.269435 -10.83561,-8.44709 -12.10303,-9.022766 -26.96096,-12.246023 -2.32996,-0.50546 -5.48804,-1.566319 -7.01795,-2.357466 -2.96289,-1.532167 -4.82566,-1.406005 -15.54486,1.052819 -5.71489,1.310913 -7.26251,2.138511 -9.70511,5.189861 -4.18598,5.229234 -7.99388,12.805983 -8.00764,15.933159 -0.007,1.483397 -0.66092,5.13589 -1.45422,8.116652 -0.79329,2.980762 -1.25245,5.726837 -1.02034,6.102387 0.2321,0.375551 3.40697,0.961561 7.05526,1.302243 11.2829,1.053614 18.13067,3.859273 20.33212,8.330449 0.77052,1.564945 2.00802,3.205215 2.75,3.645044 1.80945,1.072608 1.71139,3.347288 -0.17551,4.071362 -1.06816,0.409889 -1.33524,1.339361 -0.89216,3.104753 0.34783,1.385848 0.3691,3.20592 0.0473,4.044606 -0.8825,2.299767 -4.35103,-0.157349 -6.73403,-4.770411 -1.06543,-2.0625 -2.20075,-3.75 -2.52291,-3.75 -0.32217,0 -1.47069,1.125 -2.55226,2.5 -1.27406,1.619699 -2.96796,2.5 -4.81059,2.5 -1.56424,0 -3.03964,0.5625 -3.27866,1.25 -0.32774,0.942699 -2.00766,0.710728 -6.83333,-0.94358 -4.01524,-1.376477 -6.75263,-1.842099 -7.34876,-1.25 -0.5225,0.518969 -1.96461,0.94358 -3.20469,0.94358 -1.77257,0 -2.39112,0.727265 -2.89274,3.401153 -0.44777,2.386776 -1.28145,3.541402 -2.79532,3.871403 -1.18649,0.258639 -2.94096,0.799814 -3.89882,1.202604 -1.16828,0.49127 -1.94513,0.20188 -2.35995,-0.879126 z"
       style="fill:#151515" />
    <path
       id="path3472"
       d="m 295.99344,88.542478 c -0.98277,-1.085958 -2.51502,-2.2098 -3.40498,-2.497426 -0.88997,-0.287626 -2.36277,-1.835925 -3.2729,-3.440666 -1.59301,-2.808774 -1.56861,-2.998668 0.65334,-5.086085 2.78093,-2.612552 8.03334,-3.945363 15.67471,-3.977495 4.66638,-0.01962 6.21981,0.436022 8.75269,2.567294 3.93153,3.308166 3.02096,4.775685 -2.57208,4.145269 -5.34128,-0.60204 -6.06731,0.244721 -2.82306,3.292534 2.47219,2.322505 3.36163,5.971046 1.45561,5.971046 -0.55746,0 -1.88229,-0.542525 -2.94406,-1.205612 -1.57601,-0.984236 -2.27656,-0.892426 -3.81517,0.5 -2.50002,2.262484 -5.50827,2.157502 -7.7041,-0.268859 z"
       style="fill:#151515" />
  </g>
  <g
     id="g3462"
     transform="matrix(0.8,0,0,0.8,22.973766,20.23076)"
     clip-path="url(#clipPath2851)">
    <path
       style="fill:#aaaaaa;fill-opacity:1"
       d="m 1,173.89655 c 4.7012715,-8.14957 12.890706,-14.30095 14.994105,-23.8838 2.60134,-6.12978 8.123338,-10.30136 14.552934,-11.70211 6.029258,-4.05271 1.296862,-13.20701 -0.604856,-17.99192 -6.121864,-4.50694 -8.063716,-12.82806 -10.212792,-19.9296 -1.189168,-6.291327 -3.785069,-13.632095 -1.187511,-19.610469 5.097056,-0.835277 4.420445,-2.748601 1.542059,-6.176748 -1.785178,-7.771666 -3.275947,-15.694548 -4.373941,-23.560818 -0.59517,-7.895621 4.470791,-14.458613 9.224213,-20.147048 3.77146,-2.376925 6.925083,-11.934982 7.559972,-11.798545 -0.04499,0.153365 4.615064,-5.183532 7.505817,-4.929486 -2.082588,-3.707424 -8.711843,1.55536 -11.694759,2.808588 -2.733849,1.806304 -6.691537,1.475757 -10.029483,3.634497 1.891613,-1.525065 7.448341,-9.707784 1.340298,-4.123154 -2.648049,0.98785 -7.049285,6.554254 -3.891167,-0.01176 -1.909562,-1.174851 -0.02429,-1.732156 0.674026,-4.407919 -2.406824,0.672653 -8.144099,7.065408 -3.891756,1.96487 1.917988,-2.012554 7.267624,-8.3979951 1.416116,-3.620024 -4.3230345,3.4371 -6.0685863,4.622244 -10.3861837,7.290267 -3.73425399,-2.312637 -1.7750482,6.313498 -3.35742585,0.07345 C -0.98491168,13.538195 7.2059058,8.4195202 0.5326022,12.00736 -0.07346037,8.041641 0.13034995,4.001917 -0.06757783,0 13.699695,0.1534153 27.498191,-0.39668729 41.239753,0.45747278 47.514216,3.5046094 36.384863,4.9149531 35.466712,10.878798 c -3.35466,5.584439 1.23576,-1.8423271 3.569238,-2.2646111 1.833786,0.789347 -3.755135,1.8759841 0.898901,2.5795721 3.595074,-4.9776166 8.003025,4.116442 11.169934,-1.6289984 C 53.61476,6.7313947 62.258051,0.60332081 64.5,1 68.983082,4.2230196 75.654842,-2.0450745 79.881966,2 81.782511,3.2737325 87.193485,4.8413225 83.25,1.5 c -6.076629,-2.34751142 7.790222,-1.10214077 2.251679,3.0547963 4.560681,4.0483567 11.409993,0.8805002 16.763191,1.3210883 1.16151,-3.4453351 5.61087,2.4535318 8.53212,1.8741154 5.47298,5.983039 10.3235,12.292775 12.80826,20.146198 7.05493,7.258209 11.45392,17.154113 11.01594,27.399108 0.18698,9.120956 -1.72758,18.191825 -5.68141,26.404357 -1.21369,6.957823 1.60802,13.22573 -2.1057,19.429727 -4.32393,8.33112 -5.38275,17.57535 -10.68938,25.46728 -3.28442,7.51703 -3.53353,16.6936 -9.78996,22.70952 2.22342,6.72158 9.29306,12.42754 11.27358,20.04931 0.78106,2.55282 4.31766,6.99136 -0.75336,5.6445 C 79.346882,174.83596 41.804601,175.44844 4.2886243,174.40319 3.2022718,174.23325 2.0192959,174.41043 1,173.89655 z M 5,14.976047 C 9.3311356,15.988758 13.340102,5.9492159 6.8392792,9.305948 4.7779796,11.226339 0.40482661,17.084055 5,14.976047 z m 14.547619,0.238239 c 2.078482,-2.958499 2.655258,-5.4767936 -0.532306,-2.586731 -3.436811,-0.634195 -3.111617,5.008898 0.532306,2.586731 z m 13.874106,-5.127793 c 5.758236,-7.6765297 -9.913601,7.074607 -1.932201,1.785633 l 1.036025,-0.889231 0.896176,-0.896402 0,0 z m 10.119394,1.846976 c 1.733648,-4.8556503 -7.249826,3.048221 -0.951762,0.753237 l 0.951762,-0.753237 0,0 z M 22,25.5 c 1.437653,-3.301485 9.087698,-6.451048 2.948219,-1.454427 C 24.125836,24.75499 19.060092,28.908465 22,25.5 z M 29,18 c 6.893638,-7.515269 -2.817837,6.836458 0,0 z M 45.087927,8.605946 C 44.119459,5.7125215 48.043838,-0.18381653 50.18041,3.9177467 52.423038,2.1980732 57.253989,-2.6409239 55.035714,3.81015 48.719933,3.1896876 58.219659,7.1011148 51.650942,5.6081988 48.280755,5.363763 46.652185,11.605123 45.087927,8.605946 z M 48.342009,6.6753426 C 50.798435,2.3260417 41.041811,10.323276 47.40965,6.5752756 l 0.551254,-0.05747 0.381105,0.1575372 0,0 z M 44.730968,0.34406326 c 5.672965,-1.03409412 2.985145,1.47774274 0,0 z"
       id="path3468" />
    <path
       style="fill:#6e6e6e;fill-opacity:1"
       d="m 1,174.13723 c 3.5063794,-6.64388 9.74197,-10.13898 13.344328,-16.49434 0.518994,-6.70419 4.611574,-13.811 11.198089,-16.62228 5.260236,-2.51618 13.162543,-2.79595 9.182532,-10.701 0.245038,-5.21446 -1.446673,-12.4061 -6.240262,-12.29483 -2.951796,-4.4355 -5.371056,-12.10355 -7.093963,-18.355121 C 20.788922,93.688021 15.42771,82.032464 23.235947,80.105928 19.737199,73.3386 19.123805,65.668287 17.72974,58.281177 15.7489,51.907329 15.608023,44.444202 19.856927,38.943248 24.109347,33.040409 28.54804,27.347858 33.046775,21.648644 37.47322,14.595303 45.53569,14.060664 52.28851,11.260507 56.959843,2.7500547 67.777787,2.3102068 76.356691,2.1164862 84.085197,3.3703994 90.886652,10.064583 99.185539,6.920691 107.64346,4.6203406 114.81651,12.960565 119.36989,19 c 1.16722,8.800224 9.0007,13.223838 11.54977,21.144097 4.61352,6.511246 2.60151,13.091128 2.46634,20.321323 0.91494,8.093248 -2.71062,15.39168 -5.69895,22.595792 0.31636,4.08669 -1.29624,11.580286 -4.56943,12.547554 -3.64182,-4.582957 -5.5399,-14.041238 -12.53038,-11.931822 6.22575,4.023701 4.71889,13.528792 -2.61752,8.275564 -2.06769,-5.591828 -4.9422,1.92068 -3.7107,3.047492 -3.08944,-0.981358 -13.667975,-7.996304 -6.0401,-1.656607 5.97433,3.557246 -9.09044,3.142659 -6.989215,-3.263192 -5.051983,-0.678054 -12.488574,-7.165324 -5.212428,-7.923821 2.614567,-7.304274 10.843589,-8.483401 17.671323,-7.97641 5.42283,-1.141748 10.8591,0.204941 14.61207,4.409369 1.64818,0.892558 0.16254,-4.772107 0.579,-6.456799 -0.90056,-6.915398 2.71729,-15.295082 -3.66832,-20.47037 -6.29093,-4.3405 -12.21673,-10.657646 -20.281495,-11.038595 -7.243205,-1.431559 -15.595553,-6.486182 -22.30372,-3.289711 -0.410014,1.958755 -4.015503,3.121628 -3.520185,4.231617 0.137752,-2.865625 0.531168,-5.429554 -4.490425,-3.654232 0.702812,3.980416 5.140127,-2.627074 1.902285,3.049655 1.233181,3.477993 -5.186621,-3.487562 -2.86973,0.816824 -6.795882,-2.877742 1.283563,7.052787 -4.818051,3.49801 -6.677099,2.130657 3.96045,5.947116 -3.200633,7.049814 -2.764892,2.145538 2.370872,3.950573 -2.724109,4.745064 -2.619688,3.656668 7.509764,7.407121 0.42074,5.519037 -5.609893,0.02253 5.45185,3.375635 -0.965702,3.294427 -1.953,-1.662545 0.373909,3.072099 -1.708843,1.844818 4.714147,7.168827 14.646162,3.428684 20.019671,9.189479 2.717896,3.754742 4.940156,6.285968 7.78404,9.127014 -3.086897,5.338039 -3.01331,11.756925 -3.901246,16.047179 3.150222,3.13467 -1.779223,6.7426 0.696053,7.56971 -1.855113,2.06804 -6.51261,7.99456 -2.662842,4.88343 2.012741,3.87867 8.117409,6.44232 8.546257,10.00399 -3.845732,2.26863 -9.110255,3.86387 -12.975898,0.68744 6.421006,5.79023 -4.849206,-0.0615 -4.246157,-3.81366 -5.42787,-3.05293 0.164643,-8.96509 1.379848,-10.06461 0.466422,-4.55672 3.58566,-4.92553 0.803161,-9.37293 4.461882,-4.2182 -3.812731,-5.959592 -4.701868,-8.250776 -0.380706,2.781267 3.853121,6.302776 -1.228993,2.944983 -6.472605,-0.682232 -13.54799,0.03599 -19.08005,-2.478243 2.690528,1.867148 -0.150127,2.067889 0.969933,5.185649 -4.451254,4.801807 2.479627,-4.519179 -2.126138,-0.103227 -4.366609,5.203744 11.786438,8.266794 1.864743,8.538664 -1.427225,0.25776 5.742776,5.65603 0.574671,3.14368 -3.753553,0.68649 9.168072,3.6012 1.326592,5.32102 -3.352133,0.89243 6.219055,1.28254 1.420555,3.5099 7.934682,1.41717 -1.977019,2.58309 -1.314546,-1.61216 -3.158608,1.90448 0.761894,4.88328 0.928351,5.08206 0.413583,2.38272 4.358352,0.14317 4.196802,4.58368 -6.119075,0.63362 3.655628,7.51541 4.390575,11.05124 -1.317424,5.69849 5.025051,7.66438 7.642073,12.00779 -3.97366,-3.96207 -0.106299,-4.21068 0.261614,0.0263 -0.455825,4.26443 8.284737,9.57883 9.167393,9.87911 1.808167,0.97119 6.069519,2.48949 5.613924,1.1372 4.2519,4.7981 17.656231,-3.9491 17.052257,3.77579 -5.173307,4.73768 -11.853571,6.78635 -18.090148,8.72336 -24.3797,0.65358 -48.806087,0.87899 -73.176318,-0.14132 L 1,174.13723 z m 69,-68.51479 c -4.269591,-5.3086 -3.63387,-0.90876 0,0 z m 4.666667,-1.07845 c -2.928726,-4.10828 -0.0036,4.46695 0,0 z m 29.012363,69.06197 c 0.44335,-5.95621 -1.75199,-17.64904 2.28398,-20.37535 5.41949,4.5984 9.5199,11.07389 11.8253,17.63468 5.25501,6.53496 -9.88973,4.38353 -14.10928,2.74067 z m -9.107601,-12.17739 c -4.208807,-6.33108 7.982401,2.86287 0.735491,0.67516 l -0.735491,-0.67516 0,0 z m -28.600623,-6.96375 c -3.656603,-4.67528 5.913249,1.0207 1.19188,0.88018 l -1.19188,-0.88018 0,0 z M 59.872445,145.25 c -3.083746,-4.043 4.806223,3.63573 0.883555,1.03292 L 59.872445,145.25 z m 14.946077,-1.29443 c -3.618462,-0.96706 -8.566898,-5.43274 -1.326464,-2.49612 4.118838,-3.99814 17.199138,3.09612 6.021965,3.41403 -1.466038,-0.0691 -3.602625,0.32082 -4.695501,-0.91791 z m -8.791383,-2.90486 c -3.911226,-3.26224 -10.655865,-7.8541 -2.586514,-8.79793 5.580999,-1.10631 11.454429,0.4311 17.455686,1.84245 9.537095,3.71842 -6.167782,2.74846 -9.523766,3.88768 -5.269195,-1.04105 -4.065141,3.90503 -3.087366,5.00178 -1.054993,-0.0926 -1.733759,-1.18394 -2.25804,-1.93398 z M 54.5,141 c 0.728471,-3.61189 2.558571,3.24062 0,0 z m 31.79969,-5.35337 c -7.856646,-4.84248 13.005553,-2.87137 9.529981,1.11615 -3.92245,1.56086 -9.168918,-2.72094 -8.796966,-0.14305 l -0.733015,-0.9731 0,0 z M 86,91.5 c -1.782865,-4.812614 4.398252,4.63933 0,0 z m -32.666667,-33 c 2.671505,-3.486408 3.261593,3.456432 0,0 z M 64,44 c -2.362973,-3.50956 4.867979,2.973371 0,0 z"
       id="path3466" />
    <path
       style="fill:#333333;fill-opacity:1"
       d="m 2.696598,173.65173 c 2.2469008,-6.79352 9.075929,-9.53655 12.711893,-15.34367 1.3393,-5.31678 1.204988,-10.10668 6.084108,-14.34747 4.384448,-1.83479 8.685375,-6.33999 13.183071,-3.71059 2.39975,6.6791 -1.415357,12.83433 0.919355,19.18678 -1.733929,4.80246 -0.160102,6.13962 2.619522,9.56322 -3.753652,-2.97234 -4.419827,-1.36164 -0.610288,1.56993 1.706061,1.80345 -2.003121,-0.2626 0.820456,2.85677 -6.137818,2.92633 -16.028972,0.97164 -23.637995,1.55027 -3.92648,-0.36999 -8.6006125,0.61552 -12.090122,-1.32524 z m 103.193462,-0.85715 c -0.80534,-4.76885 -3.04931,-16.25257 0.83151,-17.59752 4.80548,3.68327 7.36372,9.89595 8.78586,14.80294 0.61236,2.96491 4.50106,6.09638 -0.99461,5 -2.91881,-0.2205 -6.93422,0.88972 -8.62276,-2.20542 z M 65,172.5 c -6.315003,-3.14175 -11.209378,-7.72584 -16.513388,-12.29322 -2.470641,-3.27982 -9.255859,-12.65497 -5.417512,-14.66407 2.984373,-1.63661 -11.17148,-1.02427 -1.989901,-2.2503 4.54668,-1.18633 3.048964,4.22958 6.821949,3.48832 -0.494922,2.54963 -3.077206,2.41046 1.837507,2.32743 -0.840955,3.6329 4.41358,-3.85734 2.06907,1.70277 -0.713055,3.90476 3.335511,4.91637 3.10594,2.63571 -0.455908,4.9534 4.522648,1.47038 5.746507,6.0693 4.725379,3.6542 12.404133,6.18864 19.207065,6.07634 6.94207,-0.50449 5.129411,5.2167 -0.317015,5.67383 -4.373415,-0.36114 -7.761753,-0.36936 -11.407229,1.03364 -3.314674,-4.07231 -1.854167,1.91592 -2.116915,1.25962 L 65,172.5 z m 19.872445,-6.16262 c -3.198763,-2.86552 9.165035,-1.51102 4.638896,0.30535 -2.632071,-0.77056 -1.383848,3.80627 -4.638896,-0.30535 z m -44.413564,-5.40391 c -1.10716,-4.58811 4.808877,3.96674 0,0 z m 20.117537,-24.80982 c 0.34586,-4.56613 18.840696,-0.0869 7.32839,0.58868 -2.379291,0.0375 -5.139848,0.53176 -7.32839,-0.58868 z m 11.622836,-15.11009 c -8.37405,-1.36342 1.228322,-6.19544 3.214349,-0.37811 1.690717,2.85298 -2.393503,-0.0341 -3.214349,0.37811 z M 28.426999,109.55699 c -4.245089,-4.96308 5.09228,-1.56536 1.491639,0.91174 l -1.491639,-0.91174 z M 23.643842,99.350133 C 25.756343,94.241851 27.936924,88.141644 23.063615,82.335228 26.77514,77.706431 18.132513,72.035265 19.876174,65.875073 19.489429,62.812792 21.233649,60.746336 18.545012,58 c -2.824377,-4.63502 0.4281,-8.255555 -0.988514,-13.130485 2.517111,-6.079734 6.624722,-10.9494 9.99544,-14.487958 2.338709,-3.312417 7.097011,-10.348642 11.074386,-12.951989 4.577091,-5.378113 15.209542,-1.069246 16.492035,-9.5119899 3.434961,-3.1150816 7.456916,-2.8069806 11.5852,-4.8675107 8.691084,-1.4024422 16.799618,1.827563 24.610633,5.0079381 7.396231,-0.4458887 16.223408,-2.6803794 21.730668,3.8772955 5.83326,4.925091 6.90457,13.006026 10.88533,19.064699 5.97784,3.90292 8.10224,12.841161 9.87299,19.570322 -5.29837,-0.102278 2.45136,7.316042 -1.2252,11.088036 -0.12525,5.986379 -1.19847,10.021096 -3.50937,14.71693 -4.50338,3.451255 0.92275,11.892646 -4.32812,13.335451 -6.4965,-4.324959 -3.09221,-12.953651 -5.09603,-19.27498 2.1022,-5.656482 1.57326,-9.356035 0.76203,-14.399208 C 116.04383,50.228124 109.54086,46.169822 103.60578,42.065805 97.725211,38.606096 90.824666,37.940211 84.654647,36.256558 78.662991,32.71057 69.650631,31.306377 64.197644,35.420577 c -3.3137,-1.051437 -8.145971,-0.534452 -10.024069,3.010235 -4.947901,-3.125073 0.73641,5.386942 -5.42024,5.790937 -0.738856,2.51062 -1.271403,4.831994 -3.358363,4.608312 -0.402338,4.345947 -0.420235,11.379192 -3.688798,12.269896 2.891796,3.123311 0.778183,5.078405 -0.225109,8.257753 -8.196314,-2.756796 -2.036136,7.827977 2.857925,3.371616 7.300888,-0.452325 15.035844,0.930211 21.534043,3.683578 2.54463,2.38033 10.472478,9.854128 8.511253,10.79276 -2.026056,-1.717692 -9.928156,-10.0413 -4.717976,-3.244597 0.812612,4.02402 5.289797,11.180793 0.412637,10.229912 -2.480495,0.150205 -6.774441,-13.137077 -8.962192,-5.0395 -3.025039,4.692728 -11.208207,-3.542226 -9.212819,3.599943 -5.43034,1.398767 -11.544377,-6.271395 -15.047986,-4.495472 3.445291,4.325348 -8.176245,0.145343 -5.25595,7.141264 0.719325,4.184297 -6.668947,3.345472 -7.956158,3.952919 z m 46.897277,-8.283602 c -4.808877,-3.966741 1.107162,4.588108 0,0 z M 43,87.122445 C 40.709517,83.488068 39.928682,80.185899 39.351243,85.930366 36.24931,86.105659 43.341114,89.170457 43,87.122445 z m 2.468991,-1.072272 c -1.238639,-4.117526 -5.294943,-2.417383 -1.10907,0.82428 l 0.531739,-0.0919 0.577331,-0.732376 z m -9.361104,-1.983495 c -1.246962,-0.704735 2.619467,-3.854277 -1.314196,-3.504976 -2.741774,2.115927 4.051376,7.856893 1.314196,3.504976 z M 48,82.393011 c -5.014866,-2.074595 -3.300758,3.115732 0,0 z m 4,1.229434 c -4.238315,-5.273021 -3.65567,-0.967163 0,0 z M 37.560155,77.547917 c -1.780497,-11.287054 -2.695747,8.750984 0,0 z m 3.836839,-10.714584 c -3.457553,-2.842734 -1.657717,2.970884 0,0 z M 97.074811,89.639786 C 92.710786,86.419893 84.00391,80.266039 93.812973,77.325134 c 7.017777,-2.266097 17.015727,-4.862659 22.242077,2.156615 2.47307,3.19604 -2.29335,2.029167 -2.83719,3.204475 -1.77587,-1.311033 -8.18352,-3.504079 -8.49849,-1.604 2.28277,2.475753 8.85716,7.389124 7.36604,8.470562 -2.68041,3.786938 -7.813,-6.581909 -8.30572,1.027937 -1.99324,1.052621 -5.720854,2.121282 -6.704879,-0.940937 z M 107,85.654988 c -3.25306,-3.582071 -5.9554,-5.263739 -1.43429,-0.602767 -0.006,-0.178566 1.377,1.70253 1.43429,0.602767 z M 93,82.622445 c -4.238315,-5.273021 -3.65567,-0.967163 0,0 z m -8.979944,2.901721 c -1.990934,-4.715293 4.878055,3.638149 0,0 l 0,0 z"
       id="path3464" />
  </g>
  <g
     id="g3380"
     transform="translate(-160.91102,-0.74152545)">
    <path
       style="fill:#d0d0d0;fill-opacity:1"
       d="m 0,172.31907 c 1.5964887,-6.7757 10.169761,-10.28598 12.5,-15.9111 -2.6491036,1.09334 3.355772,-4.96027 3.11098,-7.26173 2.48678,-4.31091 7.812238,-8.77281 6.368377,-10.776 2.603083,-2.26123 9.91314,-10.17343 2.929546,-4.88498 -1.780008,-1.03299 -2.19478,4.00446 -3.130925,-0.50566 6.480493,-4.99288 -6.632935,2.82386 -0.937124,-2.50439 4.436787,-7.43809 -4.474924,1.00863 -5.099594,3.99251 -1.806961,2.95296 -8.7659449,5.89681 -3.167473,1.05374 4.150076,-5.16867 11.276275,-11.55198 11.832869,-17.59893 -2.284899,-2.51449 -8.73224,6.20515 -8.501047,2.25384 1.845774,-2.00191 5.761259,-8.4523 1.14405,-7.55919 2.842827,-4.0168 1.889096,-0.55962 3.218475,-1.5635 1.570137,-4.27097 -1.52611,-10.04304 -3.712036,-8.33924 -1.362703,-4.685223 -12.5430528,8.19614 -6.38693,-0.25787 4.947007,-3.169606 7.04317,-11.511335 3.145642,-10.978935 5.800396,-3.621682 2.691032,-12.325056 -2.513173,-5.294929 C 6.6453892,85.156801 -3.085467,96.411363 3.9820155,88.098098 6.2550564,86.892236 11.22261,77.245241 11.4125,80.936558 c -3.6048172,2.556142 -4.0153899,6.296176 0.950011,2.672797 4.668693,-0.281504 2.509092,-8.396173 1.779743,-3.645577 -3.14839,-3.723925 -5.8822793,-2.5933 -8.6589893,-0.124382 2.0478955,-4.457225 12.7364253,-9.338542 11.0140723,-12.93793 -0.94906,2.824416 -7.1983965,8.263398 -3.547178,2.014102 -4.3397235,-0.382795 -5.4824632,7.703451 -8.6078816,8.365406 -1.119819,2.604125 -7.3145419,7.409378 -2.5831311,2.644839 C 4.7417955,75.158432 5.7438091,69.600244 8.2517597,64.854729 6.4549976,60.650265 2.9531262,73.183176 1.3110862,69.339278 3.1139392,65.6248 5.8632594,61.791915 9.4181773,57.896252 9.5543992,55.37892 0.66790677,62.770425 0.5780832,64.088046 -0.2672606,42.738893 0.11096511,21.362337 -0.04623662,0 46.736698,0.14701892 93.528824,-0.407945 140.30365,0.56859195 c 3.39597,-0.11313365 4.78775,0.84042815 1.93767,0.92907345 -3.83291,9.5141806 7.32603,-8.0646203 7.62119,1.6216579 -1.09079,6.9940437 3.57466,18.6217067 -4.44544,21.9744247 -1.73712,-0.593557 -10.20588,2.185056 -8.58699,-0.450753 2.89567,-2.849973 2.88841,-6.937312 -1.07355,-1.942627 -4.58428,0.377929 -5.83881,8.815712 -0.0315,4.355882 -5.26342,3.903368 3.5712,8.25184 3.92262,2.488591 4.27785,-1.844063 -2.99345,7.044924 2.07341,2.351195 0.43618,-4.655859 12.32054,-10.316854 5.97121,-3.093725 -5.36601,1.318526 -7.84851,9.537873 -11.48116,10.822474 3.1339,-2.565792 4.97155,-7.808481 -0.73026,-4.0085 -4.62562,2.462889 -5.3999,3.52038 -1.13702,5.396829 -4.75457,4.923455 10.14544,-4.335875 3.6012,1.680998 -1.19467,3.917012 -2.51941,8.152981 2.13198,2.96242 5.78406,-0.187181 -11.23821,10.934281 -2.75131,13.002454 -4.35198,3.412885 -1.10992,6.990621 2.78001,3.906326 -0.58351,3.157139 -8.49482,8.44849 -5.0061,9.453864 -3.97591,3.34477 -5.93239,11.067592 -5.4049,13.417156 -3.10406,-0.65905 2.12484,6.849038 2.29735,2.263683 8.59727,-2.00251 -8.30297,12.953135 0.018,9.336909 -3.69426,1.753026 -3.76542,8.093596 -4.19564,8.534286 -2.04216,0.23722 -4.04302,3.70743 -0.83176,1.50121 -3.53469,4.09299 0.63306,2.61825 2.01738,2.83656 -4.4243,5.63228 -6.6806,12.34115 -10.69468,18.26777 0.41619,6.9164 -5.47758,11.81711 -7.03507,17.48699 5.43617,-2.17624 -9.77131,7.63801 -0.3963,9.02329 4.5062,-2.87552 3.8136,-0.59825 1.41742,2.77828 2.38762,3.67954 4.75954,11.59285 10.85485,7.42625 -5.06973,2.11362 -2.37847,8.49262 -3.1124,10.10844 C 80.022549,175 40.011275,175 0,175 c 0,-0.89364 0,-1.78729 0,-2.68093 z m 30.594461,-37.81785 c 6.540041,-6.98006 -8.046004,5.09391 -1.265811,1.05482 l 1.265811,-1.05504 0,2.2e-4 z m 89.836249,-11.40384 c -3.99203,1.37224 -3.53765,4.36251 0.0118,0.29019 l -0.0118,-0.29019 z M 19,70.657921 c -3.596248,-0.153817 -8.224341,10.118022 -1.914441,2.688197 L 18.080677,72.204269 19,70.657921 z M 15.5,63 c 4.266182,-5.97892 -6.6135686,6.159846 0,0 z M 9.1240877,61.733333 c -3.1949809,-1.825417 2.7985573,4.616075 0,0 z M 140.38156,23.448062 c -0.37907,-3.919122 -2.36295,4.524449 0,0 z M 135.21651,17.25 c 3.94606,-2.092639 3.02226,-11.3225676 0.8027,-3.67205 -1.85477,1.519613 -5.00602,8.354426 -0.8027,3.672052 l 0,-2e-6 z m -2.08129,-4.912934 c -1.75961,-0.609763 -12.51299,8.474802 -4.55601,3.464806 1.58021,-1.060452 3.23084,-2.080729 4.55601,-3.464806 z m 10.03604,3.007946 c 6.1618,-7.7983129 -8.02567,1.807737 -1.64932,1.168836 l 0.84315,-0.526235 0.80617,-0.642601 z M 131.59501,3.75 c 5.0944,-4.8939 -3.88758,1.665856 -2.91666,2.25 1.22189,-0.3788042 2.09343,-1.3385434 2.91666,-2.25 z m 9.21186,-2.2764614 c -2.79584,1.039566 -1.16948,4.9371533 0,0 z M 5.5112833,158.62312 c 3.7920149,-6.12855 1.2555441,1.91655 -0.8912177,1.65318 l 0.3105311,-0.68823 0.5806866,-0.96495 0,0 z M 124,159.60699 c 3.23738,-3.23484 2.81364,1.41326 0,0 z M 137,155.5 c 4.39678,-4.47147 1.05485,2.56995 -0.67538,1.05937 L 137,155.5 z m -6,-3 c 2.87568,-3.45497 1.29635,0.85948 -0.74489,1.5 l 0.0126,-0.44063 L 131,152.5 z M 8.8833202,150.70544 c -2.6313311,-4.35073 6.2988418,-1.27006 6.9348878,-7.06623 2.145548,-4.84393 -7.4839438,5.30906 -1.921155,-1.03677 2.999538,-1.76598 -3.9351315,-4.07689 1.291784,-4.20468 2.609807,-0.7241 8.965597,-5.74056 4.389015,-0.47898 -2.49359,4.48746 -5.25107,12.29727 -9.363302,13.63914 l -1.3312298,-0.85244 0,-4e-5 z M 127.67492,149.25 c 0.42665,-3.57605 8.21313,-8.0579 3.71007,-1.71482 -0.70214,1.022 -2.47552,3.70766 -3.71007,1.71482 z M 2.0936445,137.32433 c 0.9645075,-3.77218 -4.4140715,0.85807 -0.9298736,-3.20395 4.6266339,-2.04049 3.0496004,-1.84326 2.4848499,2.7136 -0.1202024,0.31455 -1.4214795,1.52256 -1.5549763,0.49035 z M 8,135.5 c 2.875676,-3.45497 1.2963554,0.85948 -0.7448894,1.5 L 7.2676718,136.55937 8,135.5 z m 2,-2.96482 c 6.347402,-6.47723 3.049995,2.56156 0,0 z m 3.55887,-5.00338 c 9.49557,-5.69501 -4.6528569,5.13681 0,0 z m -6.1483341,-2.28793 c 5.3024161,-6.78273 -8.21107173,2.34672 -2.8630005,-2.0956 -1.2501631,-3.28213 1.2815627,-8.79505 0.6695178,-1.82308 1.2698106,0.95709 4.6837107,-3.306 7.7829468,-3.38449 1.915064,1.24125 5.975592,-2.76386 1.5,1.47252 -4.301656,1.90671 -2.589648,8.88835 -5.6064249,5.26719 -1.8907403,1.38596 -5.1655094,4.67636 -1.4830392,0.56346 z M 17,123.5 c 2.875675,-3.45497 1.296356,0.85948 -0.744889,1.5 l 0.01256,-0.44062 L 17,123.5 z m 110,-2.22257 c 2.48489,-5.72953 6.59896,-2.45571 0,0 z M 147.09889,118.25 c 7.48088,-7.65697 -3.07501,5.89853 0,0 z M 1.3333333,115.54399 c 2.9287244,-4.10828 0.00355,4.46695 0,0 z m 126.4351167,0.28756 c 6.51086,-2.9364 -0.706,2.91598 0,0 z M 14,114.5 c 2.875675,-3.45497 1.296356,0.85948 -0.744889,1.5 l 0.01256,-0.44062 L 14,114.5 z m -8,-6 c 2.8756761,-3.45497 1.2963555,0.85948 -0.7448894,1.5 L 5.2676718,109.55938 6,108.5 z m 2,1.05902 c 2.432656,-3.77648 2.776337,2.02484 0,0 z m 127,-0.16667 c 1.77931,-2.6927 4.03777,1.46663 0,0 z M 4.9701937,103.05569 c 6.8999463,-9.240304 -2.7020868,6.7078 0,0 z m 125.7378363,0.6077 c -8.24522,-0.62803 12.51157,-5.870761 4.08529,-0.0681 -0.60656,0.41326 -4.92006,2.26355 -4.08529,0.0681 z m 3.81843,-1.47026 c -3.64005,0.26979 -2.61629,3.71202 0,0 z M 0.70398489,101.37065 C 1.1088189,96.359714 10.68564,92.328443 5.3286552,99.729821 4.1235241,100.39396 2.0915203,102.93881 0.70398489,101.37065 z M 9,91.37515 c 1.702849,-3.479211 9.220555,-7.179463 3,-1.87515 -0.803827,0.371294 -1.956544,2.349067 -3,1.87515 z m 125.09704,-9.10584 c 1.91065,-3.540301 5.978,-3.590282 1.27152,-0.193624 -0.58997,0.477165 -3.63623,3.612947 -1.27152,0.193624 z M 144.09889,77.25 c 7.48088,-7.65697 -3.07501,5.898537 0,0 z m -7.54656,-0.974236 c 0.82699,-3.211003 2.91295,-9.431572 7.18534,-7.854185 -3.39903,2.609485 -7.92742,9.70772 -1.26456,3.704756 4.84014,-4.248118 -5.15677,7.704013 -5.92078,4.149429 z m 10.181,-17.399852 c 4.73435,-2.759667 -1.5544,2.896747 0,0 z m -4.93957,-3.340845 c 1.09429,-1.902529 3.65089,-14.161154 4.58145,-7.422192 0.91198,2.198832 -8.73062,14.478148 -4.58145,7.422192 z M 148,56 c 1.04739,-3.253224 2.51727,3.469468 0,0 z m 0.63837,-21.5 c -1.52076,-2.273094 -0.81653,-7.002371 1.14731,-1.333333 0.64949,1.070786 -1.58922,5.079434 -1.14731,1.333333 z"
       id="path3396" />
    <path
       style="fill:#b9b9b9;fill-opacity:1"
       d="m 0,174.47853 c 3.9394175,-8.09122 13.822138,-13.33317 14.36955,-22.67233 3.321853,-6.12742 8.985272,-11.59189 15.393248,-13.67703 3.934683,-3.40958 3.142855,-7.78655 2.22936,-8.58146 3.045499,-3.20214 -5.427885,1.12923 -1.3367,-3.55888 2.324569,-3.09233 0.07306,-5.42994 -2.653863,-1.98783 3.825947,-3.92987 -4.26163,-6.97653 -4.902862,-11.21008 C 20.323089,108.94189 19.085864,99.682587 17.353276,93.640093 16.239912,87.868981 15.786182,80.882945 21.094176,77.5 16.493751,71.826067 19.667313,61.054573 15.302298,57.645215 14.030448,62.216522 13.812886,55.80743 12.333333,57.41033 18.489391,56.43072 12.292245,53.682271 15.838282,49.594045 15.314638,45.19482 6.9280098,54.553264 11.946167,48.728687 19.470185,43.391594 6.5341951,45.851903 7.75,42.367059 10.011963,40.944533 17.869999,31.18255 15.355937,30.361842 12.638053,31.051349 5.2185259,38.080285 9.8550874,30.8183 14.077929,25.103916 5.286866,35.496906 6.9526254,31.470721 7.4172248,30.928565 8.3810774,25.739614 10.214032,25 9.2324725,23.98576 15.907517,16.531599 10.054807,21.692325 7.4276204,24.374297 3.038534,23.92438 3.7514044,22.823113 2.2556731,25.403794 -0.5963908,33.071598 4.1852209,26.930189 3.3311894,23.341564 11.416616,24.984962 7.5,26 8.3774003,26.718503 2.8233993,27.839691 6.708366,27.353248 4.7963701,29.800775 -0.81916646,36.548684 1.1329544,31.769165 -0.49448831,21.294529 0.2615626,10.575354 -0.11616612,-0.01271614 31.684848,0.17355486 63.501759,-0.39283065 95.289684,0.53350151 c 2.891669,-1.25054209 7.846416,4.52587849 5.629346,0.0414753 4.39463,-0.88222531 9.26122,-0.54316438 6.70622,3.28308249 5.38603,-5.1500366 14.07886,-4.10766267 20.70533,-2.7928781 0.22649,2.4846854 -1.91986,6.4672634 0.25483,6.7966222 -4.33816,-0.5210413 -0.68471,6.4565906 -6.38209,4.4392136 -0.40129,5.927127 -5.82896,0.509556 -0.5726,-0.136591 3.4157,-1.251713 5.56551,-10.0562292 4.44269,-9.9144874 -3.70885,2.6655705 -5.97536,11.9205424 -10.29885,10.5470434 2.00286,4.135212 4.9822,4.217493 7.65127,3.166716 -3.73609,5.464137 0.18907,8.511854 1.27072,13.91927 6.82808,0.168998 4.84334,11.072375 10.75317,14.409978 -0.67859,6.989708 -0.15642,16.783387 -1.60451,24.672297 -0.78312,7.372159 -7.75583,13.608918 -4.49086,21.285089 3.77921,3.66066 -3.55671,10.915138 -4.16792,15.963238 -1.67357,2.53508 1.50804,3.41684 -2.27416,6.95918 -2.59539,2.90552 2.09168,5.43118 -3.4036,8.644 -5.24505,3.86491 -0.70952,5.81397 -4.50867,10.34532 -1.73066,5.95967 -3.76786,11.54817 -7.40567,16.43644 -3.34443,2.27511 -0.0246,4.15242 1.78902,6.11965 4.27559,5.31171 7.48492,11.65763 10.1128,17.98119 2.1105,3.87894 -3.3231,1.78441 -5.45947,2.30065 C 76.026079,174.87094 37.997745,175.3675 0,174.47853 z M 11.172433,41.396256 c -0.376712,-3.480065 2.882437,3.86784 3.300993,-0.633163 3.515981,0.169775 6.13742,-4.499854 1.328486,-0.797802 -1.0187,-4.538216 -0.979824,-0.379292 -4.992764,0.183251 -2.5492064,2.07997 -0.46371,6.655512 0.363285,1.247714 z M 22,31.5 c 2.449278,-3.049157 -2.079528,0.03262 -1.744889,1.5 L 20.973922,32.559375 22,31.5 z m 6,-4.277432 c -4.481259,-0.152677 -4.381764,5.8999 -0.538542,0.817515 L 28,27.222568 z M 9,20.5 C 11.449279,17.450843 6.9204721,20.532623 7.2551106,22 L 7.9739218,21.559375 9,20.5 z M 115.59501,7.8281057 c 2.17751,-2.1442296 -2.73211,-0.9817028 1.42273,-4.3469878 3.59928,-7.422381 -10.81373,10.4555791 -2.11884,5.1091312 l 0.69611,-0.7621434 0,0 z M 112,8.6069888 c 3.23739,-3.2348378 2.81364,1.4132662 0,0 z m 9.54252,-3.3977974 c 2.40381,-2.943575 4.43251,-5.97350813 -0.38594,-1.8758581 -1.96373,1.166371 -1.60271,3.4394303 0.38594,1.8758581 z M 115,2.5238332 c -1.75549,-4.2303428 -5.77819,6.0048828 -0.66094,0.606886 L 115,2.5238332 z M 25.270833,128.39583 c 3.683988,-1.12513 1.554679,1.81265 0,0 z M 6,47.5 C 8.8756761,44.045029 7.2963554,48.359479 5.2551106,49 L 5.2676719,48.559375 6,47.5 z M 2.7591463,40.895552 C 6.3593857,37.128498 2.4186689,37.406471 1.3724447,39.29713 c 0.6475671,-4.572388 4.6608586,-6.04894 8.0245834,-4.355667 5.7864989,-5.826564 3.4889099,2.111782 -1.0180169,2.762826 0.2227882,1.631999 -9.4418465,7.415264 -5.6198649,3.191263 z m 3.7607725,-3.875181 c -1.8809058,-9.467428 -2.0007488,5.587285 0,0 z M 131,11.5 c 2.87568,-3.4549713 1.29635,0.859479 -0.74489,1.5 l 0.0126,-0.440625 L 131,11.5 z m -7.89961,-4.2045216 c 4.95052,-5.6266139 -2.77506,5.1573166 0,0 z"
       id="path3394" />
    <path
       style="fill:#a3a3a3;fill-opacity:1"
       d="m 1.0106651,173.75 c 3.6463881,-6.36634 9.5789069,-10.99511 13.0036679,-17.25032 0.721825,-9.1315 8.571902,-15.89404 17.135997,-18.04124 6.257471,-3.32659 1.564697,-13.49514 0.132267,-18.12932 -7.6999,-3.71346 -8.204229,-13.6104 -11.298461,-20.755682 C 18.722897,93.711795 17.048497,89.845932 18.495785,83.356455 17.738526,79.050118 26.202733,80.852213 21.25,76.259463 17.599872,68.086363 17.596256,58.620415 16.337981,49.809365 14.79296,41.106212 22.881009,35.033371 27.369865,28.516828 32.638049,21.246475 38.926271,12.039599 49.110114,12.602631 54.706646,6.5200677 62.092948,1.5377831 71.049734,2.0741529 79.123826,0.16328232 85.551661,6.8141618 93.257252,6.8413518 100.42879,5.8764896 108.59218,5.3666442 113.58732,11.757056 c 7.40597,4.922279 6.81506,14.604601 13.2162,20.219221 4.80363,6.507364 8.88385,14.938969 6.92622,23.163516 3.25167,8.831558 -2.47948,18.43129 -5.13136,26.915498 -0.25756,7.739359 -1.09622,15.64887 -4.27937,22.868729 -2.35346,3.56771 -2.87521,3.283 -2.48797,6.84352 -2.47698,0.56123 -1.57144,-4.65487 -2.96315,-0.76754 0.66913,0.31605 2.34886,5.26596 0.66956,2.90451 0.22835,-2.8797 -4.98101,6.22985 -0.47625,1.09546 0.91819,6.14332 -5.10683,11.5071 -5.84515,18.42247 -0.85712,6.74895 -6.51073,13.1794 -7.94728,18.57753 6.63275,3.93592 9.36569,12.11431 12.79076,18.73076 2.5171,3.682 1.51896,5.06886 -2.77806,4.26924 C 78.637168,174.84691 41.98072,175.41054 5.3466287,174.47684 3.9429821,174.22175 2.2712111,174.56711 1.0106651,173.75 z M 83,115.5 c 4.850584,-7.70557 -10.463912,6.53886 -1.030287,0.9707 L 83,115.5 z m 35.46864,-14.3647 C 120.83637,98.86495 121.37501,98.255198 121,97 c 1.80721,-2.360244 -4.9199,2.016183 -3.94098,3 -3.21975,0.63593 1.43756,2.75946 1.40962,1.1353 z M 0.88888889,5.5 c -0.89443396,-8.9625319 2.99627221,-0.8781895 0,0 z"
       id="path3392" />
    <path
       style="fill:#8c8c8c;fill-opacity:1"
       d="m 1.0106651,173.75 c 3.6463881,-6.36634 9.5789069,-10.99511 13.0036679,-17.25032 0.721825,-9.1315 8.571902,-15.89404 17.135997,-18.04124 6.257471,-3.32659 1.564697,-13.49514 0.132267,-18.12932 -7.6999,-3.71346 -8.204229,-13.6104 -11.298461,-20.755682 C 18.722897,93.711795 17.048497,89.845932 18.495785,83.356455 17.738526,79.050118 26.202733,80.852213 21.25,76.259463 17.599872,68.086363 17.596256,58.620415 16.337981,49.809365 14.79296,41.106212 22.881009,35.033371 27.369865,28.516828 32.638049,21.246475 38.926271,12.039599 49.110114,12.602631 54.706646,6.5200677 62.092948,1.5377831 71.049734,2.0741529 79.123826,0.16328232 85.551661,6.8141618 93.257252,6.8413518 100.42879,5.8764896 108.59218,5.3666442 113.58732,11.757056 c 7.40597,4.922279 6.81506,14.604601 13.2162,20.219221 4.80363,6.507364 8.88385,14.938969 6.92622,23.163516 3.25167,8.831558 -2.47948,18.43129 -5.13136,26.915498 -0.25756,7.739359 -1.09622,15.64887 -4.27937,22.868729 -2.35346,3.56771 -2.87521,3.283 -2.48797,6.84352 -2.47698,0.56123 -1.57144,-4.65487 -2.96315,-0.76754 0.66913,0.31605 2.34886,5.26596 0.66956,2.90451 0.22835,-2.8797 -4.98101,6.22985 -0.47625,1.09546 0.91819,6.14332 -5.10683,11.5071 -5.84515,18.42247 -0.85712,6.74895 -6.51073,13.1794 -7.94728,18.57753 6.63275,3.93592 9.36569,12.11431 12.79076,18.73076 2.5171,3.682 1.51896,5.06886 -2.77806,4.26924 C 78.637168,174.84691 41.98072,175.41054 5.3466287,174.47684 3.9429821,174.22175 2.2712111,174.56711 1.0106651,173.75 z M 83,115.5 c 4.850584,-7.70557 -10.463912,6.53886 -1.030287,0.9707 L 83,115.5 z m 35.46864,-14.3647 C 120.83637,98.86495 121.37501,98.255198 121,97 c 1.80721,-2.360244 -4.9199,2.016183 -3.94098,3 -3.21975,0.63593 1.43756,2.75946 1.40962,1.1353 z M 0.88888889,5.5 c -0.89443396,-8.9625319 2.99627221,-0.8781895 0,0 z"
       id="path3390" />
    <path
       style="fill:#767676;fill-opacity:1"
       d="m 1,174.13723 c 3.2202485,-7.35388 12.057292,-10.72487 13.465555,-18.40302 1.437372,-7.90248 7.406744,-14.07507 14.971186,-16.48273 10.745695,-0.19875 3.994623,-12.84726 3.441502,-19.2563 -6.038975,-0.7764 -6.708952,-6.7511 -9.242813,-12.8075 C 21.13921,99.093862 18.725048,90.781445 19.371887,82.196652 27.735467,80.129288 17.375868,71.117874 18.876381,64.764717 18.150683,57.554922 14.462959,49.96473 17.637649,42.787687 20.856124,36.087817 26.462775,31.08332 30.301735,24.831234 35.060325,18.763591 41.004013,12.884482 49.165221,12.88693 54.763419,9.2680858 59.01916,2.325058 67.020343,2.7811072 c 8.380759,-2.43939595 16.038688,1.2929094 23.489504,4.5652947 7.994768,0.1688246 16.890623,-3.1379015 22.707263,4.7837191 8.2798,4.478715 6.51879,15.809474 13.94919,20.771738 2.88132,5.322604 7.87667,12.700141 6.55757,18.709664 -0.83883,8.961175 0.84764,18.620582 -4.18251,26.71441 -3.07376,5.157293 -1.1127,15.126134 -6.42374,17.282833 -3.66611,-4.536035 -5.48531,-14.133172 -12.53038,-11.931822 6.22575,4.023701 4.71889,13.528792 -2.61752,8.275564 -2.06769,-5.591828 -4.9422,1.92068 -3.7107,3.047492 -3.15631,-1.152098 -13.646431,-7.934627 -6.0401,-1.656607 5.97433,3.557246 -9.09044,3.142659 -6.989215,-3.263192 -3.988365,-0.07881 -13.386659,-7.821748 -5.336892,-7.193021 1.776024,-7.263427 9.96547,-9.332938 16.556987,-8.676056 5.85066,-1.093472 11.89765,-0.228516 15.95792,4.468294 1.37577,0.117863 0.12334,-5.263506 0.45604,-7.328157 -0.009,-8.028817 2.15763,-18.042495 -7.00382,-22.26136 -6.4808,-5.93022 -14.470678,-8.421244 -22.741715,-10.413351 -7.400588,-1.14109 -14.442484,-5.220514 -19.575472,1.365495 -2.122828,4.96185 2.222024,-4.611208 -2.794583,-2.493265 -4.406784,-0.56457 -0.502764,4.128177 1.251159,0.450675 -1.632087,3.220448 -1.116224,5.57902 -4.874094,2.01571 2.539937,2.749398 -5.757936,0.773926 -1.735647,3.79372 2.174546,4.028717 -8.554292,0.309806 -3.907147,5.554614 3.40442,2.083813 -5.969057,3.905702 -1.931442,6.544247 -6.787408,0.324295 0.812756,7.494824 0.04945,7.112313 -6.311825,-0.60074 -2.652187,0.357377 -1.228689,2.453527 -1.493293,2.300498 -3.774808,-1.78878 -2.809975,2.346152 -1.993626,1.956826 7.989949,4.955008 11.188212,5.912918 8.451976,-1.082452 10.185566,8.938377 15.74608,11.820584 -2.746055,5.698335 -3.752009,12.461824 -3.559936,16.90729 2.284351,3.37206 -2.019684,6.25624 0.313856,7.20175 -1.855113,2.06804 -6.51261,7.99456 -2.662842,4.88343 2.012741,3.87867 8.117409,6.44232 8.546257,10.00399 -3.834599,2.28734 -9.124051,3.8164 -12.975898,0.68744 6.246582,6.24834 -5.180227,-1.04856 -4.937158,-4.43044 -4.59883,-3.48955 1.236856,-8.29231 2.070849,-9.44783 0.466422,-4.55672 3.58566,-4.92553 0.803161,-9.37293 4.461882,-4.2182 -3.812731,-5.959592 -4.701868,-8.250776 0.345142,3.71565 3.301633,5.83785 -2.089118,2.534202 -6.360217,0.426864 -12.902486,0.0058 -18.219925,-2.067462 2.271433,1.673183 0.04622,2.178768 0.969933,5.185649 -4.4532,4.803487 2.317606,-4.526318 -2.126138,-0.103227 -4.366609,5.203744 11.786438,8.266794 1.864743,8.538664 -1.427225,0.25776 5.742776,5.65603 0.574671,3.14368 -3.86022,0.76374 9.423439,3.49393 1.270355,5.34183 -3.200421,0.87605 6.272332,1.27813 1.476792,3.48909 7.934682,1.41717 -1.977019,2.58309 -1.314546,-1.61216 -3.09597,1.5535 0.564122,5.26136 0.928351,5.08206 0.413583,2.38272 4.358352,0.14317 4.196802,4.58368 -6.119075,0.63362 3.655628,7.51541 4.390575,11.05124 -1.317424,5.69849 5.025051,7.66438 7.642073,12.00779 -3.97366,-3.96207 -0.106299,-4.21068 0.261614,0.0263 -0.455825,4.26443 8.284737,9.57883 9.167393,9.87911 1.808167,0.97119 6.069519,2.48949 5.613924,1.1372 4.2519,4.7981 17.656231,-3.9491 17.052257,3.77579 -5.173307,4.73768 -11.853571,6.78635 -18.090148,8.72336 -24.37939,0.65096 -48.806469,0.8847 -73.176318,-0.14132 L 1,174.13723 z m 69,-68.51479 c -4.269591,-5.3086 -3.63387,-0.90876 0,0 z m 4.666667,-1.07845 c -2.928726,-4.10828 -0.0036,4.46695 0,0 z m 29.012363,69.06197 c 0.38015,-6.0073 -1.79488,-17.71196 2.28398,-20.37535 5.92744,5.08801 10.19206,12.19276 12.49856,19.51771 2.35066,3.99806 -13.36423,2.31479 -14.78254,0.85764 z m -9.107601,-12.17739 c -4.680365,-5.49471 7.610391,1.08159 1.385186,1.15001 l -1.385186,-1.15001 0,0 z m -28.600623,-6.96375 c -2.734323,-5.74692 6.3455,3.74582 0,0 l 0,0 z M 59.872445,145.25 c -3.083746,-4.043 4.806223,3.63573 0.883555,1.03292 L 59.872445,145.25 z m 14.946077,-1.29443 c -3.712775,-0.89973 -8.495061,-5.49928 -1.326464,-2.49612 4.118838,-3.99814 17.199138,3.09612 6.021965,3.41403 -1.466038,-0.0691 -3.602625,0.32082 -4.695501,-0.91791 z m -8.791383,-2.90486 c -3.911226,-3.26224 -10.655865,-7.8541 -2.586514,-8.79793 6.131022,-0.77473 12.949679,0.27306 19.330148,2.62454 5.206021,3.25243 -7.870649,1.73837 -10.397796,2.97677 -5.231595,-1.08275 -5.847681,3.45847 -4.087798,5.1306 l -1.164412,-0.56195 -1.093633,-1.37203 5e-6,0 z M 54.5,141 c 0.728471,-3.61189 2.558571,3.24062 0,0 z m 31.79969,-5.35337 c -6.90843,-4.50187 10.131931,-3.29052 10.382263,0.79416 -3.896963,2.34509 -10.077908,-2.48492 -9.649248,0.17894 l -0.733015,-0.9731 0,0 z M 86,91.5 c -1.782865,-4.812614 4.398252,4.63933 0,0 z m -32.666667,-33 c 2.348094,-3.446221 4.130565,3.452518 0,0 z M 64,44 c -2.362973,-3.50956 4.867979,2.973371 0,0 z"
       id="path3388" />
    <path
       style="fill:#606060;fill-opacity:1"
       d="m 1,174.13723 c 3.2202485,-7.35388 12.057292,-10.72487 13.465555,-18.40302 1.437372,-7.90248 7.406744,-14.07507 14.971186,-16.48273 10.745695,-0.19875 3.994623,-12.84726 3.441502,-19.2563 -6.038975,-0.7764 -6.708952,-6.7511 -9.242813,-12.8075 C 21.13921,99.093862 18.725048,90.781445 19.371887,82.196652 27.735467,80.129288 17.375868,71.117874 18.876381,64.764717 18.150683,57.554922 14.462959,49.96473 17.637649,42.787687 20.856124,36.087817 26.462775,31.08332 30.301735,24.831234 35.060325,18.763591 41.004013,12.884482 49.165221,12.88693 54.763419,9.2680858 59.01916,2.325058 67.020343,2.7811072 c 8.380759,-2.43939595 16.038688,1.2929094 23.489504,4.5652947 7.994768,0.1688246 16.890623,-3.1379015 22.707263,4.7837191 8.2798,4.478715 6.51879,15.809474 13.94919,20.771738 2.88132,5.322604 7.87667,12.700141 6.55757,18.709664 -0.83883,8.961175 0.84764,18.620582 -4.18251,26.71441 -3.07376,5.157293 -1.1127,15.126134 -6.42374,17.282833 -3.66611,-4.536035 -5.48531,-14.133172 -12.53038,-11.931822 6.22575,4.023701 4.71889,13.528792 -2.61752,8.275564 -2.06769,-5.591828 -4.9422,1.92068 -3.7107,3.047492 -3.15631,-1.152098 -13.646431,-7.934627 -6.0401,-1.656607 5.97433,3.557246 -9.09044,3.142659 -6.989215,-3.263192 -3.988365,-0.07881 -13.386659,-7.821748 -5.336892,-7.193021 1.776024,-7.263427 9.96547,-9.332938 16.556987,-8.676056 5.85066,-1.093472 11.89765,-0.228516 15.95792,4.468294 1.37577,0.117863 0.12334,-5.263506 0.45604,-7.328157 -0.009,-8.028817 2.15763,-18.042495 -7.00382,-22.26136 -6.4808,-5.93022 -14.470678,-8.421244 -22.741715,-10.413351 -7.400588,-1.14109 -14.442484,-5.220514 -19.575472,1.365495 -2.122828,4.96185 2.222024,-4.611208 -2.794583,-2.493265 -4.406784,-0.56457 -0.502764,4.128177 1.251159,0.450675 -1.632087,3.220448 -1.116224,5.57902 -4.874094,2.01571 2.539937,2.749398 -5.757936,0.773926 -1.735647,3.79372 2.174546,4.028717 -8.554292,0.309806 -3.907147,5.554614 3.40442,2.083813 -5.969057,3.905702 -1.931442,6.544247 -6.787408,0.324295 0.812756,7.494824 0.04945,7.112313 -6.311825,-0.60074 -2.652187,0.357377 -1.228689,2.453527 -1.493293,2.300498 -3.774808,-1.78878 -2.809975,2.346152 -1.993626,1.956826 7.989949,4.955008 11.188212,5.912918 8.451976,-1.082452 10.185566,8.938377 15.74608,11.820584 -2.746055,5.698335 -3.752009,12.461824 -3.559936,16.90729 2.284351,3.37206 -2.019684,6.25624 0.313856,7.20175 -1.855113,2.06804 -6.51261,7.99456 -2.662842,4.88343 2.012741,3.87867 8.117409,6.44232 8.546257,10.00399 -3.834599,2.28734 -9.124051,3.8164 -12.975898,0.68744 6.246582,6.24834 -5.180227,-1.04856 -4.937158,-4.43044 -4.59883,-3.48955 1.236856,-8.29231 2.070849,-9.44783 0.466422,-4.55672 3.58566,-4.92553 0.803161,-9.37293 4.461882,-4.2182 -3.812731,-5.959592 -4.701868,-8.250776 0.345142,3.71565 3.301633,5.83785 -2.089118,2.534202 -6.360217,0.426864 -12.902486,0.0058 -18.219925,-2.067462 2.271433,1.673183 0.04622,2.178768 0.969933,5.185649 -4.4532,4.803487 2.317606,-4.526318 -2.126138,-0.103227 -4.366609,5.203744 11.786438,8.266794 1.864743,8.538664 -1.427225,0.25776 5.742776,5.65603 0.574671,3.14368 -3.86022,0.76374 9.423439,3.49393 1.270355,5.34183 -3.200421,0.87605 6.272332,1.27813 1.476792,3.48909 7.934682,1.41717 -1.977019,2.58309 -1.314546,-1.61216 -3.09597,1.5535 0.564122,5.26136 0.928351,5.08206 0.413583,2.38272 4.358352,0.14317 4.196802,4.58368 -6.119075,0.63362 3.655628,7.51541 4.390575,11.05124 -1.317424,5.69849 5.025051,7.66438 7.642073,12.00779 -3.97366,-3.96207 -0.106299,-4.21068 0.261614,0.0263 -0.455825,4.26443 8.284737,9.57883 9.167393,9.87911 1.808167,0.97119 6.069519,2.48949 5.613924,1.1372 4.2519,4.7981 17.656231,-3.9491 17.052257,3.77579 -5.173307,4.73768 -11.853571,6.78635 -18.090148,8.72336 -24.37939,0.65096 -48.806469,0.8847 -73.176318,-0.14132 L 1,174.13723 z m 69,-68.51479 c -4.269591,-5.3086 -3.63387,-0.90876 0,0 z m 4.666667,-1.07845 c -2.928726,-4.10828 -0.0036,4.46695 0,0 z m 29.012363,69.06197 c 0.38015,-6.0073 -1.79488,-17.71196 2.28398,-20.37535 5.92744,5.08801 10.19206,12.19276 12.49856,19.51771 2.35066,3.99806 -13.36423,2.31479 -14.78254,0.85764 z m -9.107601,-12.17739 c -4.680365,-5.49471 7.610391,1.08159 1.385186,1.15001 l -1.385186,-1.15001 0,0 z m -28.600623,-6.96375 c -2.734323,-5.74692 6.3455,3.74582 0,0 l 0,0 z M 59.872445,145.25 c -3.083746,-4.043 4.806223,3.63573 0.883555,1.03292 L 59.872445,145.25 z m 14.946077,-1.29443 c -3.712775,-0.89973 -8.495061,-5.49928 -1.326464,-2.49612 4.118838,-3.99814 17.199138,3.09612 6.021965,3.41403 -1.466038,-0.0691 -3.602625,0.32082 -4.695501,-0.91791 z m -8.791383,-2.90486 c -3.911226,-3.26224 -10.655865,-7.8541 -2.586514,-8.79793 6.131022,-0.77473 12.949679,0.27306 19.330148,2.62454 5.206021,3.25243 -7.870649,1.73837 -10.397796,2.97677 -5.231595,-1.08275 -5.847681,3.45847 -4.087798,5.1306 l -1.164412,-0.56195 -1.093633,-1.37203 5e-6,0 z M 54.5,141 c 0.728471,-3.61189 2.558571,3.24062 0,0 z m 31.79969,-5.35337 c -6.90843,-4.50187 10.131931,-3.29052 10.382263,0.79416 -3.896963,2.34509 -10.077908,-2.48492 -9.649248,0.17894 l -0.733015,-0.9731 0,0 z M 86,91.5 c -1.782865,-4.812614 4.398252,4.63933 0,0 z m -32.666667,-33 c 2.348094,-3.446221 4.130565,3.452518 0,0 z M 64,44 c -2.362973,-3.50956 4.867979,2.973371 0,0 z"
       id="path3386" />
    <path
       style="fill:#494949;fill-opacity:1"
       d="m 2,173.51756 c 3.3630508,-6.42056 9.651568,-10.67212 12.92015,-16.92822 1.194708,-8.88274 7.96632,-15.86681 16.781554,-17.45591 3.861475,2.2448 6.831031,1.70996 6.283815,-3.50854 -3.133912,-3.22592 -4.368553,-4.4527 0.604254,-3.06135 -2.751927,-2.65331 -5.634819,-13.53178 0.954745,-7.39526 4.88322,2.59188 0.536865,2.24548 5.489904,6.23354 2.180947,2.98677 1.754696,6.45279 3.004329,4.08989 5.431699,3.44145 -5.668436,1.98982 -0.205768,6.09134 5.081546,1.99572 3.153108,8.43237 8.987531,9.06323 -6.25148,1.6107 7.805652,8.16866 10.358472,11.3896 6.993048,4.31174 16.075544,1.04722 23.476856,2.52938 2.771433,3.84405 -5.64859,3.41464 -7.528765,5.91783 -2.48984,2.66019 -12.503561,-0.54683 -8.720016,4.23958 -8.406839,1.37132 -17.177767,-2.08777 -22.291174,-8.94052 C 47.318401,162.39569 46.226859,162.54848 42,158.95077 c 5.388116,4.92719 -2.964658,4.66507 -3.654988,0.0492 2.971837,0.39043 3.807138,-4.97576 6.655451,-1.00055 -3.396371,-5.91574 -9.74193,1.88005 -6.192863,5.98338 -3.41543,-4.1702 -0.878408,2.61918 2.087971,-0.25368 6.042906,2.70393 -0.182992,5.55433 -2.508666,2.65775 0.66655,2.43339 10.17273,7.70948 2.403477,4.04074 2.549257,7.13395 -10.129554,3.74237 -15.317527,4.57132 C 17.872355,174.34678 8.8875785,176.32481 2,173.51756 z m 38.541119,-20.45103 c -5.898633,-4.40116 1.817723,5.35465 0,0 z m 2.757557,-17.73057 c -0.466899,-2.50158 3.299821,1.05459 0.215038,-2.7011 -6.807866,-8.56437 1.405262,9.43302 -0.215038,2.7011 z M 104.21429,164.5 c -0.32205,-4.59248 -0.37264,-14.9479 5.42408,-7.5 3.83742,4.56707 6.62177,11.65497 7.77694,17.35407 -4.17678,1.27919 -8.82284,0.38639 -13.20102,0.64593 0,-3.5 0,-7 0,-10.5 z m -54.332711,4.75 C 48.615645,166.61846 47.04401,163.26021 52,166.5 c 1.730295,1.71445 -2.504239,2.13063 -1.870572,3.27969 l -0.247846,-0.52969 -3e-6,0 z m 28.022698,-26.86534 c -1.911778,-5.39806 7.028476,4.94012 0,0 z M 61.25,136.88536 c -2.518582,-5.92532 10.788374,-3.24885 14.5,-2.03767 2.859282,3.42585 -9.410035,2.22617 -12.350612,2.86537 l -1.294777,-0.28721 -0.854611,-0.54049 0,0 z m 11.938851,-11.66187 c -4.965417,-0.74816 -8.042914,-12.72427 -0.337734,-7.37198 2.797149,1.52953 6.980155,8.71335 0.337734,7.37198 z M 30.889675,116.75 c -2.316448,-5.91133 7.178043,7.73662 0,0 z m 5.139285,-1.71094 c -3.474184,-4.42328 5.228245,2.98034 0,0 l 0,0 z M 32,114 c -2.363034,-3.50945 4.867997,2.97336 0,0 z m -2.990862,-3.48899 c -4.631082,-1.40577 -5.728385,-5.48719 -5.45104,-7.782 -4.108785,-5.956816 8.440219,-15.131281 -2.539881,-17.637933 -3.02921,-3.798753 6.98552,-4.606289 0.994083,-8.88157 -3.444383,-7.091258 -2.205775,-15.499697 -5.078039,-22.852123 -1.256045,-8.168921 2.359689,-14.524719 7.792648,-20.361493 4.618678,-6.126159 9.447115,-13.199643 15.979648,-17.697232 6.715987,-1.89608 12.596297,-3.17939 16.890129,-9.132377 6.41117,-2.8258106 13.72931,-4.4715432 20.75565,-3.3117246 8.048127,3.6518156 16.200197,5.9480563 25.093554,4.042089 10.10046,1.978473 16.64935,11.7276356 18.82085,21.2246756 6.40778,5.529938 10.08744,13.741251 11.47842,21.958796 -2.00722,5.898567 1.63144,14.242568 -1.71433,20.999473 -5.29228,5.629682 -2.2467,14.832127 -6.82233,19.9017 0.56065,4.960687 -3.86089,4.637829 -3.4703,-0.399829 -5.3941,-6.493051 -1.08887,-15.429648 -1.85833,-23.528534 1.64469,-8.144687 -1.83805,-16.143862 -9.50244,-19.720767 -6.63674,-7.325519 -17.266661,-7.609069 -26.061285,-10.732284 -7.551746,-3.781 -15.92809,-2.008016 -23.57578,0.337433 -3.376764,0.692563 -5.496257,5.322276 -6.249326,5.055253 -2.40615,-1.80879 2.1339,7.695067 -3.802684,2.840649 -4.185215,-1.217134 7.928748,8.624632 -0.611705,5.753314 6.471006,5.412671 -1.690478,1.323148 -2.438276,4.913474 -2.860348,2.096559 3.17574,7.081586 -1.452218,5.943493 -1.145894,3.948323 1.656641,8.213719 -2.186156,8.790917 6.76838,3.054435 16.176652,2.175297 23.423387,5.754936 4.372736,1.863934 6.261287,11.638761 9.283142,8.481398 -0.337824,3.814971 -2.668767,7.600384 -4.612439,5.332289 6.233498,2.847152 -1.824175,17.008097 -3.375794,9.320444 8.542318,1.310503 -6.681966,-3.448479 -3.678827,-8.122849 C 63.166557,80.970605 57.830401,99.29541 54.674424,91.75 c -3.966328,-3.957267 3.609105,5.967035 -3.632571,2.75162 -6.298103,-2.588027 -16.663713,-4.921851 -18.639814,3.427825 1.125291,4.602365 -7.653045,-1.055541 -6.169823,5.605685 -0.301083,3.39536 7.155211,-0.0152 4.863255,3.00232 -1.501228,-1.42941 2.999028,8.84564 -2.086333,3.97356 z m 6.483783,-17.499556 c -1.557255,-1.986004 -3.583479,3.092587 0,0 z m -1.480313,14.017496 c -2.25568,-3.69588 6.405876,2.52642 0,0 z M 97,90.5 c -4.117336,-1.365961 -8.515,-5.677861 -9.362509,-9.542957 4.043876,-4.095395 9.262285,-6.7107 15.178739,-6.051218 4.76214,-1.385487 18.97747,1.972101 13.56134,7.757147 -3.57634,0.198798 -14.57537,-2.087487 -5.93492,2.575224 5.39972,3.099481 2.27113,9.995631 -2.69532,4.777697 C 104.44821,85.94465 102.54863,96.579658 97,90.5 z M 84.5,86 c -4.540403,-5.762698 8.154124,3.446204 1.36495,1.286378 L 85.207136,86.724039 84.5,86 z"
       id="path3384" />
    <path
       style="fill:#333333;fill-opacity:1"
       d="m 2.696598,173.65173 c 2.2469008,-6.79352 9.075929,-9.53655 12.711893,-15.34367 1.456226,-5.4581 1.320579,-10.84997 6.832125,-14.90629 4.080856,-1.53945 11.615298,-7.96153 13.024965,-0.46529 -0.378976,7.53707 -0.06172,13.82298 -0.180432,21.29785 -1.01145,0.65835 6.704675,7.47254 0.656252,3.05942 -3.008361,0.0154 4.737452,4.96549 1.999914,4.8563 1.416404,5.17466 -10.317004,1.55875 -13.827154,2.83652 -6.957966,-0.4479 -14.7021696,1.06251 -21.217563,-1.33484 z m 103.193462,-0.85715 c -0.86514,-4.7985 -2.9517,-16.20381 0.83151,-17.59752 4.80548,3.68327 7.36372,9.89595 8.78586,14.80294 0.76334,3.08205 4.44732,6.11938 -1.1545,5 -2.85111,-0.21891 -6.83194,0.85678 -8.46287,-2.20542 z M 65,172.5 c -6.802886,-3.7309 -12.632428,-8.32014 -18.022371,-14.04729 -2.219739,-3.7386 -8.058435,-12.78011 -3.213322,-13.7091 -2.848924,-0.0718 -9.501197,-0.79449 -2.685108,-1.4512 4.144192,-0.33699 4.063014,3.4777 6.920801,4.15962 -3.409506,2.1995 0.451928,1.01262 1.612107,2.36658 0.351363,1.39828 4.195544,-3.84969 2.195618,0.99232 -0.713055,3.90476 3.335511,4.91637 3.10594,2.63571 -0.374646,4.76166 4.632131,2.06096 6.158331,6.00886 4.724121,4.68352 13.126933,5.93872 20.045773,6.30862 9.808258,2.03082 -4.632053,8.48485 -8.408956,4.87821 -1.911217,4.80592 -9.930306,-2.96826 -5.963924,3.35767 L 66.026078,173.55937 65,172.5 z m 19.872445,-6.16262 c -2.996003,-3.78185 10.727977,-0.0706 3.571511,0.18028 -0.843842,1.99121 -2.106604,1.67133 -3.571511,-0.18028 z m -44.413564,-5.40391 c -1.10716,-4.58811 4.808877,3.96674 0,0 z m 20.117537,-24.80982 c 0.148907,-4.53739 19.127109,-0.12887 7.32839,0.58868 -2.379291,0.0375 -5.139848,0.53176 -7.32839,-0.58868 z m 11.622836,-15.11009 c -8.37405,-1.36342 1.228322,-6.19544 3.214349,-0.37811 1.690717,2.85298 -2.393503,-0.0341 -3.214349,0.37811 z M 28.426999,109.55699 c -4.498117,-8.45337 7.102338,3.19559 0,0 z M 23.643842,99.350133 c 2.26243,-4.962727 4.252406,-11.333604 -0.580227,-17.014905 3.382384,-4.789034 -4.787844,-10.94941 -3.511786,-17.251366 2.590045,-4.687779 -3.162896,-7.819023 -2.501901,-13.363776 1.787927,-3.559033 -0.345707,-11.533332 5.661476,-14.992687 -0.171158,-2.697348 4.242572,-3.2144 3.947754,-6.452082 4.12752,-0.895463 6.300043,-10.979241 11.837089,-12.28139 C 42.216661,11.773179 53.252559,16.575376 55,8.5 58.494983,4.4473133 64.153206,3.9900229 69.648315,2.8740132 78.921494,0.83208402 86.345584,8.7725329 95.168476,7.7387953 102.55307,6.3123069 110.52797,7.5543342 115.11206,14.095067 c 5.33647,5.8776 5.19787,15.374273 12.23993,19.428068 0.84587,5.346453 8.70496,13.415202 5.2373,17.149503 -2.18972,1.677693 2.95019,7.153595 -0.0113,10.98572 -0.32172,6.532306 -1.05062,11.037103 -4.66499,16.00511 -2.4002,3.643911 1.61893,10.950996 -3.1725,12.047271 -6.614,-4.671326 -3.16145,-13.686377 -5.09762,-20.365749 2.51361,-6.011819 1.8573,-10.372568 -1.08076,-15.783991 C 112.02868,48.105091 105.50984,41.83384 97.300979,39.165281 90.087023,38.160969 83.948365,35.730538 77.00659,33.128697 c -6.290573,-1.023244 -12.323982,2.143692 -16.907912,2.240389 -4.526902,-1.365909 -4.688519,4.582837 -8.568667,2.582352 3.689553,3.876853 -5.029459,5.977624 -3.706693,10.23465 -6.122091,-1.512837 0.389319,12.697686 -6.444871,12.123419 3.147799,3.689928 1.388695,5.555266 0.102618,9.048203 -8.029649,-2.711163 -2.078374,7.822993 2.857925,3.371616 7.696984,-0.154934 16.369572,0.493395 22.731383,4.705542 1.952206,2.224514 9.595339,9.249781 7.313913,9.770796 -2.026056,-1.717692 -9.928156,-10.0413 -4.717976,-3.244597 0.812612,4.02402 5.289797,11.180793 0.412637,10.229912 -2.860202,-0.512193 -6.9503,-13.513387 -9.915801,-4.251968 -3.362328,2.751398 -10.080018,-3.618554 -8.25921,2.812411 -5.43034,1.398767 -11.544377,-6.271395 -15.047986,-4.495472 3.542007,4.424327 -8.143843,0.191413 -5.25595,7.141264 0.719325,4.184297 -6.668947,3.345472 -7.956158,3.952919 z m 46.897277,-8.283602 c -4.808877,-3.966741 1.107162,4.588108 0,0 z M 43,87.122445 C 39.701393,81.434775 41.171129,82.421241 38.487908,86.16539 38.989913,86.908273 42.647799,89.010068 43,87.122445 z m 2.468991,-1.072272 c -2.301294,-6.813217 -5.779478,0.624734 0,0 z m -9.361104,-1.983495 c -1.246962,-0.704735 2.619467,-3.854277 -1.314196,-3.504976 -2.987764,2.239824 4.249957,7.82526 1.314196,3.504976 z M 48,82.393011 c -5.014866,-2.074595 -3.300758,3.115732 0,0 z m 4,1.229434 c -4.238315,-5.273021 -3.65567,-0.967163 0,0 z M 37.560155,77.547917 c -2.441884,-10.700087 -2.002715,7.733278 0,0 z m 3.836839,-10.714584 c -3.457553,-2.842734 -1.657717,2.970884 0,0 z M 97.074811,89.639786 C 91.662004,86.329039 84.349754,79.38657 94.83909,76.908681 c 7.17175,-2.21512 18.73793,-4.354934 22.10395,4.566476 -3.19565,0.474135 -2.76291,1.744996 -6.59613,-0.05478 -0.67913,-0.848394 -8.76145,-2.287814 -4.5917,0.640335 2.44235,3.029082 10.47315,7.434936 4.54086,8.608929 -2.62053,-2.109243 -6.45335,-5.185311 -7.04607,0.344019 -2.25715,0.393456 -5.123731,1.686715 -6.175189,-1.373869 z M 107,85.654988 c -3.29379,-3.623727 -5.94139,-5.249371 -1.43429,-0.602767 -0.006,-0.178566 1.377,1.70253 1.43429,0.602767 z M 93,82.622445 c -4.238315,-5.273021 -3.65567,-0.967163 0,0 z m -8.979944,2.901721 c -1.990934,-4.715293 4.878055,3.638149 0,0 l 0,0 z"
       id="path3382" />
  </g>
</svg>
